<mxfile host="app.diagrams.net" modified="2020-09-18T15:22:50.949Z" agent="5.0 (Windows NT 10.0; Win64; x64) AppleWebKit/537.36 (KHTML, like Gecko) Chrome/85.0.4183.102 Safari/537.36" etag="mndhVIsa5cLkDW57BwhG" version="13.7.3" type="github">
  <diagram id="lee8pYSpqIMTA-2u5BTS" name="Page-1">
    <mxGraphModel dx="1221" dy="682" grid="1" gridSize="10" guides="1" tooltips="1" connect="1" arrows="1" fold="1" page="1" pageScale="1" pageWidth="827" pageHeight="1169" math="0" shadow="0">
      <root>
        <mxCell id="0" />
        <mxCell id="1" parent="0" />
        <mxCell id="LKNzd2MyCop1qyxci8-U-1" value="" style="ellipse;html=1;shape=startState;fillColor=#000000;strokeColor=#ff0000;" vertex="1" parent="1">
          <mxGeometry x="729" y="106" width="30" height="30" as="geometry" />
        </mxCell>
        <mxCell id="LKNzd2MyCop1qyxci8-U-2" value="" style="edgeStyle=orthogonalEdgeStyle;html=1;verticalAlign=bottom;endArrow=open;endSize=8;strokeColor=#ff0000;" edge="1" source="LKNzd2MyCop1qyxci8-U-1" parent="1">
          <mxGeometry relative="1" as="geometry">
            <mxPoint x="744" y="196" as="targetPoint" />
          </mxGeometry>
        </mxCell>
        <mxCell id="LKNzd2MyCop1qyxci8-U-5" style="edgeStyle=orthogonalEdgeStyle;rounded=0;orthogonalLoop=1;jettySize=auto;html=1;" edge="1" parent="1" source="LKNzd2MyCop1qyxci8-U-3">
          <mxGeometry relative="1" as="geometry">
            <mxPoint x="744" y="286" as="targetPoint" />
          </mxGeometry>
        </mxCell>
        <mxCell id="LKNzd2MyCop1qyxci8-U-3" value="1 Player draws a&lt;br&gt;3x3 graph for game" style="html=1;" vertex="1" parent="1">
          <mxGeometry x="689" y="196" width="110" height="50" as="geometry" />
        </mxCell>
        <mxCell id="LKNzd2MyCop1qyxci8-U-38" style="edgeStyle=orthogonalEdgeStyle;rounded=0;orthogonalLoop=1;jettySize=auto;html=1;" edge="1" parent="1" source="LKNzd2MyCop1qyxci8-U-37" target="LKNzd2MyCop1qyxci8-U-39">
          <mxGeometry relative="1" as="geometry">
            <mxPoint x="744" y="376" as="targetPoint" />
          </mxGeometry>
        </mxCell>
        <mxCell id="LKNzd2MyCop1qyxci8-U-37" value="Player X goes" style="html=1;" vertex="1" parent="1">
          <mxGeometry x="689" y="286" width="110" height="50" as="geometry" />
        </mxCell>
        <mxCell id="LKNzd2MyCop1qyxci8-U-40" style="edgeStyle=orthogonalEdgeStyle;rounded=0;orthogonalLoop=1;jettySize=auto;html=1;" edge="1" parent="1" source="LKNzd2MyCop1qyxci8-U-39">
          <mxGeometry relative="1" as="geometry">
            <mxPoint x="744" y="496" as="targetPoint" />
          </mxGeometry>
        </mxCell>
        <mxCell id="LKNzd2MyCop1qyxci8-U-39" value="Player O goes" style="html=1;" vertex="1" parent="1">
          <mxGeometry x="689" y="386" width="110" height="50" as="geometry" />
        </mxCell>
        <mxCell id="LKNzd2MyCop1qyxci8-U-43" style="edgeStyle=orthogonalEdgeStyle;rounded=0;orthogonalLoop=1;jettySize=auto;html=1;" edge="1" parent="1" source="LKNzd2MyCop1qyxci8-U-41">
          <mxGeometry relative="1" as="geometry">
            <mxPoint x="610" y="506" as="targetPoint" />
          </mxGeometry>
        </mxCell>
        <mxCell id="LKNzd2MyCop1qyxci8-U-41" value="Player X goes" style="html=1;" vertex="1" parent="1">
          <mxGeometry x="689" y="496" width="110" height="50" as="geometry" />
        </mxCell>
        <mxCell id="LKNzd2MyCop1qyxci8-U-45" value="Is Player X getting 3 in a row?" style="rhombus;whiteSpace=wrap;html=1;fillColor=#ffffc0;strokeColor=#ff0000;" vertex="1" parent="1">
          <mxGeometry x="579" y="616" width="80" height="40" as="geometry" />
        </mxCell>
        <mxCell id="LKNzd2MyCop1qyxci8-U-46" value="no" style="edgeStyle=orthogonalEdgeStyle;html=1;align=left;verticalAlign=bottom;endArrow=open;endSize=8;strokeColor=#ff0000;" edge="1" source="LKNzd2MyCop1qyxci8-U-45" parent="1">
          <mxGeometry x="-0.4365" relative="1" as="geometry">
            <mxPoint x="840" y="636" as="targetPoint" />
            <mxPoint as="offset" />
          </mxGeometry>
        </mxCell>
        <mxCell id="LKNzd2MyCop1qyxci8-U-47" value="yes" style="edgeStyle=orthogonalEdgeStyle;html=1;align=left;verticalAlign=top;endArrow=open;endSize=8;strokeColor=#ff0000;entryX=1;entryY=0.5;entryDx=0;entryDy=0;" edge="1" source="LKNzd2MyCop1qyxci8-U-45" parent="1" target="LKNzd2MyCop1qyxci8-U-49">
          <mxGeometry x="-0.3559" relative="1" as="geometry">
            <mxPoint x="520" y="636" as="targetPoint" />
            <mxPoint as="offset" />
          </mxGeometry>
        </mxCell>
        <mxCell id="LKNzd2MyCop1qyxci8-U-70" style="edgeStyle=orthogonalEdgeStyle;rounded=0;orthogonalLoop=1;jettySize=auto;html=1;entryX=0;entryY=0.5;entryDx=0;entryDy=0;" edge="1" parent="1" source="LKNzd2MyCop1qyxci8-U-48" target="LKNzd2MyCop1qyxci8-U-66">
          <mxGeometry relative="1" as="geometry" />
        </mxCell>
        <mxCell id="LKNzd2MyCop1qyxci8-U-48" value="Put O somewhere&lt;br&gt;&amp;nbsp;random" style="html=1;" vertex="1" parent="1">
          <mxGeometry x="840" y="611" width="110" height="50" as="geometry" />
        </mxCell>
        <mxCell id="LKNzd2MyCop1qyxci8-U-50" style="edgeStyle=orthogonalEdgeStyle;rounded=0;orthogonalLoop=1;jettySize=auto;html=1;entryX=0.5;entryY=0;entryDx=0;entryDy=0;" edge="1" parent="1" source="LKNzd2MyCop1qyxci8-U-49" target="LKNzd2MyCop1qyxci8-U-62">
          <mxGeometry relative="1" as="geometry">
            <mxPoint x="465" y="736" as="targetPoint" />
          </mxGeometry>
        </mxCell>
        <mxCell id="LKNzd2MyCop1qyxci8-U-49" value="Block them." style="html=1;" vertex="1" parent="1">
          <mxGeometry x="397.5" y="571" width="110" height="50" as="geometry" />
        </mxCell>
        <mxCell id="LKNzd2MyCop1qyxci8-U-54" style="edgeStyle=orthogonalEdgeStyle;rounded=0;orthogonalLoop=1;jettySize=auto;html=1;" edge="1" parent="1">
          <mxGeometry relative="1" as="geometry">
            <mxPoint x="605" y="930.5" as="targetPoint" />
            <mxPoint x="535" y="930.5" as="sourcePoint" />
          </mxGeometry>
        </mxCell>
        <mxCell id="LKNzd2MyCop1qyxci8-U-51" value="Player X goes" style="html=1;" vertex="1" parent="1">
          <mxGeometry x="425" y="906" width="110" height="50" as="geometry" />
        </mxCell>
        <mxCell id="LKNzd2MyCop1qyxci8-U-53" style="edgeStyle=orthogonalEdgeStyle;rounded=0;orthogonalLoop=1;jettySize=auto;html=1;entryX=0.5;entryY=0;entryDx=0;entryDy=0;" edge="1" parent="1" source="LKNzd2MyCop1qyxci8-U-52" target="LKNzd2MyCop1qyxci8-U-45">
          <mxGeometry relative="1" as="geometry" />
        </mxCell>
        <mxCell id="LKNzd2MyCop1qyxci8-U-52" value="Player O goes" style="html=1;" vertex="1" parent="1">
          <mxGeometry x="500" y="476" width="110" height="50" as="geometry" />
        </mxCell>
        <mxCell id="LKNzd2MyCop1qyxci8-U-55" value="Is Player O getting 3 in a row?" style="rhombus;whiteSpace=wrap;html=1;fillColor=#ffffc0;strokeColor=#ff0000;" vertex="1" parent="1">
          <mxGeometry x="605" y="911" width="80" height="40" as="geometry" />
        </mxCell>
        <mxCell id="LKNzd2MyCop1qyxci8-U-56" value="no" style="edgeStyle=orthogonalEdgeStyle;html=1;align=left;verticalAlign=bottom;endArrow=open;endSize=8;strokeColor=#ff0000;" edge="1" source="LKNzd2MyCop1qyxci8-U-55" parent="1" target="LKNzd2MyCop1qyxci8-U-58">
          <mxGeometry x="-0.4118" relative="1" as="geometry">
            <mxPoint x="840" y="746" as="targetPoint" />
            <mxPoint as="offset" />
          </mxGeometry>
        </mxCell>
        <mxCell id="LKNzd2MyCop1qyxci8-U-57" value="yes" style="edgeStyle=orthogonalEdgeStyle;html=1;align=left;verticalAlign=top;endArrow=open;endSize=8;strokeColor=#ff0000;entryX=1;entryY=0.5;entryDx=0;entryDy=0;" edge="1" source="LKNzd2MyCop1qyxci8-U-55" parent="1" target="LKNzd2MyCop1qyxci8-U-59">
          <mxGeometry x="-0.6923" relative="1" as="geometry">
            <mxPoint x="615" y="1071" as="targetPoint" />
            <Array as="points">
              <mxPoint x="645" y="1036" />
            </Array>
            <mxPoint as="offset" />
          </mxGeometry>
        </mxCell>
        <mxCell id="LKNzd2MyCop1qyxci8-U-76" style="edgeStyle=orthogonalEdgeStyle;rounded=0;orthogonalLoop=1;jettySize=auto;html=1;" edge="1" parent="1" source="LKNzd2MyCop1qyxci8-U-58" target="LKNzd2MyCop1qyxci8-U-77">
          <mxGeometry relative="1" as="geometry">
            <mxPoint x="1110" y="746" as="targetPoint" />
          </mxGeometry>
        </mxCell>
        <mxCell id="LKNzd2MyCop1qyxci8-U-58" value="Put X somewhere&lt;br&gt;&amp;nbsp;random" style="html=1;" vertex="1" parent="1">
          <mxGeometry x="840" y="721" width="110" height="50" as="geometry" />
        </mxCell>
        <mxCell id="LKNzd2MyCop1qyxci8-U-91" style="edgeStyle=orthogonalEdgeStyle;rounded=0;orthogonalLoop=1;jettySize=auto;html=1;" edge="1" parent="1" source="LKNzd2MyCop1qyxci8-U-59">
          <mxGeometry relative="1" as="geometry">
            <mxPoint x="350" y="920" as="targetPoint" />
          </mxGeometry>
        </mxCell>
        <mxCell id="LKNzd2MyCop1qyxci8-U-59" value="Block them" style="html=1;" vertex="1" parent="1">
          <mxGeometry x="425" y="1011" width="110" height="50" as="geometry" />
        </mxCell>
        <mxCell id="LKNzd2MyCop1qyxci8-U-111" value="" style="edgeStyle=orthogonalEdgeStyle;rounded=0;orthogonalLoop=1;jettySize=auto;html=1;" edge="1" parent="1" source="LKNzd2MyCop1qyxci8-U-62" target="LKNzd2MyCop1qyxci8-U-49">
          <mxGeometry relative="1" as="geometry" />
        </mxCell>
        <mxCell id="LKNzd2MyCop1qyxci8-U-62" value="Player O gets 3 in a row" style="rhombus;whiteSpace=wrap;html=1;fillColor=#ffffc0;strokeColor=#ff0000;" vertex="1" parent="1">
          <mxGeometry x="412.5" y="680" width="80" height="40" as="geometry" />
        </mxCell>
        <mxCell id="LKNzd2MyCop1qyxci8-U-63" value="no" style="edgeStyle=orthogonalEdgeStyle;html=1;align=left;verticalAlign=bottom;endArrow=open;endSize=8;strokeColor=#ff0000;entryX=0.5;entryY=0;entryDx=0;entryDy=0;" edge="1" source="LKNzd2MyCop1qyxci8-U-62" parent="1" target="LKNzd2MyCop1qyxci8-U-114">
          <mxGeometry x="0.0526" relative="1" as="geometry">
            <mxPoint x="450" y="760" as="targetPoint" />
            <mxPoint as="offset" />
          </mxGeometry>
        </mxCell>
        <mxCell id="LKNzd2MyCop1qyxci8-U-64" value="yes" style="edgeStyle=orthogonalEdgeStyle;html=1;align=left;verticalAlign=top;endArrow=open;endSize=8;strokeColor=#ff0000;entryX=0;entryY=0.5;entryDx=0;entryDy=0;" edge="1" source="LKNzd2MyCop1qyxci8-U-62" parent="1" target="LKNzd2MyCop1qyxci8-U-71">
          <mxGeometry x="-1" relative="1" as="geometry">
            <mxPoint x="575" y="695" as="targetPoint" />
          </mxGeometry>
        </mxCell>
        <mxCell id="LKNzd2MyCop1qyxci8-U-66" value="Player O gets 3 in a row" style="rhombus;whiteSpace=wrap;html=1;fillColor=#ffffc0;strokeColor=#ff0000;" vertex="1" parent="1">
          <mxGeometry x="1000" y="616" width="80" height="40" as="geometry" />
        </mxCell>
        <mxCell id="LKNzd2MyCop1qyxci8-U-67" value="no" style="edgeStyle=orthogonalEdgeStyle;html=1;align=left;verticalAlign=bottom;endArrow=open;endSize=8;strokeColor=#ff0000;" edge="1" parent="1" source="LKNzd2MyCop1qyxci8-U-66">
          <mxGeometry x="-0.8182" relative="1" as="geometry">
            <mxPoint x="830" y="820" as="targetPoint" />
            <mxPoint as="offset" />
            <Array as="points">
              <mxPoint x="1040" y="820" />
            </Array>
          </mxGeometry>
        </mxCell>
        <mxCell id="LKNzd2MyCop1qyxci8-U-68" value="yes" style="edgeStyle=orthogonalEdgeStyle;html=1;align=left;verticalAlign=top;endArrow=open;endSize=8;strokeColor=#ff0000;" edge="1" parent="1" source="LKNzd2MyCop1qyxci8-U-66" target="LKNzd2MyCop1qyxci8-U-74">
          <mxGeometry x="-1" relative="1" as="geometry">
            <mxPoint x="1165" y="636" as="targetPoint" />
          </mxGeometry>
        </mxCell>
        <mxCell id="LKNzd2MyCop1qyxci8-U-71" value="" style="ellipse;html=1;shape=endState;fillColor=#000000;strokeColor=#ff0000;" vertex="1" parent="1">
          <mxGeometry x="575" y="685" width="30" height="30" as="geometry" />
        </mxCell>
        <mxCell id="LKNzd2MyCop1qyxci8-U-72" value="Player O wins" style="text;align=center;fontStyle=1;verticalAlign=middle;spacingLeft=3;spacingRight=3;strokeColor=none;rotatable=0;points=[[0,0.5],[1,0.5]];portConstraint=eastwest;" vertex="1" parent="1">
          <mxGeometry x="550" y="715" width="80" height="26" as="geometry" />
        </mxCell>
        <mxCell id="LKNzd2MyCop1qyxci8-U-74" value="" style="ellipse;html=1;shape=endState;fillColor=#000000;strokeColor=#ff0000;" vertex="1" parent="1">
          <mxGeometry x="1150" y="621" width="30" height="30" as="geometry" />
        </mxCell>
        <mxCell id="LKNzd2MyCop1qyxci8-U-75" value="Player O wins" style="text;align=center;fontStyle=1;verticalAlign=middle;spacingLeft=3;spacingRight=3;strokeColor=none;rotatable=0;points=[[0,0.5],[1,0.5]];portConstraint=eastwest;" vertex="1" parent="1">
          <mxGeometry x="1125" y="595" width="80" height="26" as="geometry" />
        </mxCell>
        <mxCell id="LKNzd2MyCop1qyxci8-U-77" value="Player X gets 3 in a row" style="rhombus;whiteSpace=wrap;html=1;fillColor=#ffffc0;strokeColor=#ff0000;" vertex="1" parent="1">
          <mxGeometry x="1070" y="726" width="80" height="40" as="geometry" />
        </mxCell>
        <mxCell id="LKNzd2MyCop1qyxci8-U-78" value="no" style="edgeStyle=orthogonalEdgeStyle;html=1;align=left;verticalAlign=bottom;endArrow=open;endSize=8;strokeColor=#ff0000;entryX=0.5;entryY=0;entryDx=0;entryDy=0;" edge="1" source="LKNzd2MyCop1qyxci8-U-77" parent="1" target="LKNzd2MyCop1qyxci8-U-85">
          <mxGeometry x="-1" relative="1" as="geometry">
            <mxPoint x="1320" y="616" as="targetPoint" />
            <Array as="points">
              <mxPoint x="1300" y="746" />
              <mxPoint x="1300" y="446" />
              <mxPoint x="970" y="446" />
            </Array>
          </mxGeometry>
        </mxCell>
        <mxCell id="LKNzd2MyCop1qyxci8-U-79" value="yes" style="edgeStyle=orthogonalEdgeStyle;html=1;align=left;verticalAlign=top;endArrow=open;endSize=8;strokeColor=#ff0000;" edge="1" source="LKNzd2MyCop1qyxci8-U-77" parent="1" target="LKNzd2MyCop1qyxci8-U-80">
          <mxGeometry x="-1" relative="1" as="geometry">
            <mxPoint x="1110" y="826" as="targetPoint" />
            <Array as="points">
              <mxPoint x="1110" y="796" />
              <mxPoint x="1110" y="796" />
            </Array>
          </mxGeometry>
        </mxCell>
        <mxCell id="LKNzd2MyCop1qyxci8-U-80" value="" style="ellipse;html=1;shape=endState;fillColor=#000000;strokeColor=#ff0000;" vertex="1" parent="1">
          <mxGeometry x="1095" y="811" width="30" height="30" as="geometry" />
        </mxCell>
        <mxCell id="LKNzd2MyCop1qyxci8-U-81" value="Player X wins" style="text;align=center;fontStyle=1;verticalAlign=middle;spacingLeft=3;spacingRight=3;strokeColor=none;rotatable=0;points=[[0,0.5],[1,0.5]];portConstraint=eastwest;" vertex="1" parent="1">
          <mxGeometry x="1070" y="841" width="80" height="26" as="geometry" />
        </mxCell>
        <mxCell id="LKNzd2MyCop1qyxci8-U-85" value="Board filled up?" style="rhombus;whiteSpace=wrap;html=1;fillColor=#ffffc0;strokeColor=#ff0000;" vertex="1" parent="1">
          <mxGeometry x="930" y="466" width="80" height="40" as="geometry" />
        </mxCell>
        <mxCell id="LKNzd2MyCop1qyxci8-U-86" value="no" style="edgeStyle=orthogonalEdgeStyle;html=1;align=left;verticalAlign=bottom;endArrow=open;endSize=8;strokeColor=#ff0000;entryX=0.5;entryY=0;entryDx=0;entryDy=0;" edge="1" source="LKNzd2MyCop1qyxci8-U-85" parent="1" target="LKNzd2MyCop1qyxci8-U-52">
          <mxGeometry x="-0.7303" relative="1" as="geometry">
            <mxPoint x="1100" y="505" as="targetPoint" />
            <Array as="points">
              <mxPoint x="770" y="486" />
              <mxPoint x="770" y="446" />
              <mxPoint x="555" y="446" />
            </Array>
            <mxPoint as="offset" />
          </mxGeometry>
        </mxCell>
        <mxCell id="LKNzd2MyCop1qyxci8-U-87" value="yes" style="edgeStyle=orthogonalEdgeStyle;html=1;align=left;verticalAlign=top;endArrow=open;endSize=8;strokeColor=#ff0000;" edge="1" source="LKNzd2MyCop1qyxci8-U-85" parent="1">
          <mxGeometry x="-1" relative="1" as="geometry">
            <mxPoint x="1055" y="486" as="targetPoint" />
          </mxGeometry>
        </mxCell>
        <mxCell id="LKNzd2MyCop1qyxci8-U-88" value="" style="ellipse;html=1;shape=endState;fillColor=#000000;strokeColor=#ff0000;" vertex="1" parent="1">
          <mxGeometry x="1055" y="471" width="30" height="30" as="geometry" />
        </mxCell>
        <mxCell id="LKNzd2MyCop1qyxci8-U-89" value="Tie" style="text;align=center;fontStyle=1;verticalAlign=middle;spacingLeft=3;spacingRight=3;strokeColor=none;rotatable=0;points=[[0,0.5],[1,0.5]];portConstraint=eastwest;" vertex="1" parent="1">
          <mxGeometry x="1030" y="496" width="80" height="26" as="geometry" />
        </mxCell>
        <mxCell id="LKNzd2MyCop1qyxci8-U-92" value="Player X gets 3 in a row" style="rhombus;whiteSpace=wrap;html=1;fillColor=#ffffc0;strokeColor=#ff0000;" vertex="1" parent="1">
          <mxGeometry x="310" y="881" width="80" height="40" as="geometry" />
        </mxCell>
        <mxCell id="LKNzd2MyCop1qyxci8-U-93" value="no" style="edgeStyle=orthogonalEdgeStyle;html=1;align=left;verticalAlign=bottom;endArrow=open;endSize=8;strokeColor=#ff0000;entryX=0.5;entryY=1;entryDx=0;entryDy=0;" edge="1" source="LKNzd2MyCop1qyxci8-U-92" parent="1" target="LKNzd2MyCop1qyxci8-U-98">
          <mxGeometry x="-0.4065" relative="1" as="geometry">
            <mxPoint x="350" y="730" as="targetPoint" />
            <Array as="points" />
            <mxPoint as="offset" />
          </mxGeometry>
        </mxCell>
        <mxCell id="LKNzd2MyCop1qyxci8-U-94" value="yes" style="edgeStyle=orthogonalEdgeStyle;html=1;align=left;verticalAlign=top;endArrow=open;endSize=8;strokeColor=#ff0000;" edge="1" source="LKNzd2MyCop1qyxci8-U-92" parent="1" target="LKNzd2MyCop1qyxci8-U-95">
          <mxGeometry x="-0.542" relative="1" as="geometry">
            <mxPoint x="250" y="830" as="targetPoint" />
            <mxPoint as="offset" />
          </mxGeometry>
        </mxCell>
        <mxCell id="LKNzd2MyCop1qyxci8-U-95" value="" style="ellipse;html=1;shape=endState;fillColor=#000000;strokeColor=#ff0000;" vertex="1" parent="1">
          <mxGeometry x="235" y="815" width="30" height="30" as="geometry" />
        </mxCell>
        <mxCell id="LKNzd2MyCop1qyxci8-U-96" value="Player X wins" style="text;align=center;fontStyle=1;verticalAlign=middle;spacingLeft=3;spacingRight=3;strokeColor=none;rotatable=0;points=[[0,0.5],[1,0.5]];portConstraint=eastwest;" vertex="1" parent="1">
          <mxGeometry x="210" y="789" width="80" height="26" as="geometry" />
        </mxCell>
        <mxCell id="LKNzd2MyCop1qyxci8-U-98" value="Board filled up?" style="rhombus;whiteSpace=wrap;html=1;fillColor=#ffffc0;strokeColor=#ff0000;" vertex="1" parent="1">
          <mxGeometry x="310" y="696" width="80" height="40" as="geometry" />
        </mxCell>
        <mxCell id="LKNzd2MyCop1qyxci8-U-99" value="no" style="edgeStyle=orthogonalEdgeStyle;html=1;align=left;verticalAlign=bottom;endArrow=open;endSize=8;strokeColor=#ff0000;entryX=0;entryY=0.5;entryDx=0;entryDy=0;" edge="1" source="LKNzd2MyCop1qyxci8-U-98" parent="1" target="LKNzd2MyCop1qyxci8-U-52">
          <mxGeometry x="-0.7913" relative="1" as="geometry">
            <mxPoint x="350" y="440" as="targetPoint" />
            <Array as="points">
              <mxPoint x="350" y="501" />
            </Array>
            <mxPoint as="offset" />
          </mxGeometry>
        </mxCell>
        <mxCell id="LKNzd2MyCop1qyxci8-U-100" value="yes" style="edgeStyle=orthogonalEdgeStyle;html=1;align=left;verticalAlign=top;endArrow=open;endSize=8;strokeColor=#ff0000;" edge="1" source="LKNzd2MyCop1qyxci8-U-98" parent="1">
          <mxGeometry x="-0.2" relative="1" as="geometry">
            <mxPoint x="260" y="716" as="targetPoint" />
            <mxPoint as="offset" />
          </mxGeometry>
        </mxCell>
        <mxCell id="LKNzd2MyCop1qyxci8-U-101" value="" style="ellipse;html=1;shape=endState;fillColor=#000000;strokeColor=#ff0000;" vertex="1" parent="1">
          <mxGeometry x="230" y="701" width="30" height="30" as="geometry" />
        </mxCell>
        <mxCell id="LKNzd2MyCop1qyxci8-U-102" value="Tie" style="text;align=center;fontStyle=1;verticalAlign=middle;spacingLeft=3;spacingRight=3;strokeColor=none;rotatable=0;points=[[0,0.5],[1,0.5]];portConstraint=eastwest;" vertex="1" parent="1">
          <mxGeometry x="205" y="675" width="80" height="26" as="geometry" />
        </mxCell>
        <mxCell id="LKNzd2MyCop1qyxci8-U-104" value="Board Filled up?" style="rhombus;whiteSpace=wrap;html=1;fillColor=#ffffc0;strokeColor=#ff0000;" vertex="1" parent="1">
          <mxGeometry x="750" y="800" width="80" height="40" as="geometry" />
        </mxCell>
        <mxCell id="LKNzd2MyCop1qyxci8-U-105" value="no" style="edgeStyle=orthogonalEdgeStyle;html=1;align=left;verticalAlign=bottom;endArrow=open;endSize=8;strokeColor=#ff0000;entryX=0.75;entryY=0;entryDx=0;entryDy=0;" edge="1" source="LKNzd2MyCop1qyxci8-U-104" parent="1" target="LKNzd2MyCop1qyxci8-U-51">
          <mxGeometry x="-0.3912" relative="1" as="geometry">
            <mxPoint x="930" y="820" as="targetPoint" />
            <mxPoint as="offset" />
          </mxGeometry>
        </mxCell>
        <mxCell id="LKNzd2MyCop1qyxci8-U-106" value="yes" style="edgeStyle=orthogonalEdgeStyle;html=1;align=left;verticalAlign=top;endArrow=open;endSize=8;strokeColor=#ff0000;entryX=0.5;entryY=1;entryDx=0;entryDy=0;" edge="1" source="LKNzd2MyCop1qyxci8-U-104" parent="1" target="LKNzd2MyCop1qyxci8-U-107">
          <mxGeometry x="-0.266" relative="1" as="geometry">
            <mxPoint x="760" y="730" as="targetPoint" />
            <mxPoint as="offset" />
          </mxGeometry>
        </mxCell>
        <mxCell id="LKNzd2MyCop1qyxci8-U-107" value="" style="ellipse;html=1;shape=endState;fillColor=#000000;strokeColor=#ff0000;" vertex="1" parent="1">
          <mxGeometry x="750" y="701" width="30" height="30" as="geometry" />
        </mxCell>
        <mxCell id="LKNzd2MyCop1qyxci8-U-109" value="Tie" style="text;align=center;fontStyle=1;verticalAlign=middle;spacingLeft=3;spacingRight=3;strokeColor=none;rotatable=0;points=[[0,0.5],[1,0.5]];portConstraint=eastwest;" vertex="1" parent="1">
          <mxGeometry x="725" y="675" width="80" height="26" as="geometry" />
        </mxCell>
        <mxCell id="LKNzd2MyCop1qyxci8-U-114" value="Board filled up?" style="rhombus;whiteSpace=wrap;html=1;fillColor=#ffffc0;strokeColor=#ff0000;" vertex="1" parent="1">
          <mxGeometry x="415" y="760" width="75" height="40" as="geometry" />
        </mxCell>
        <mxCell id="LKNzd2MyCop1qyxci8-U-115" value="no" style="edgeStyle=orthogonalEdgeStyle;html=1;align=left;verticalAlign=bottom;endArrow=open;endSize=8;strokeColor=#ff0000;entryX=0.25;entryY=0;entryDx=0;entryDy=0;" edge="1" source="LKNzd2MyCop1qyxci8-U-114" parent="1" target="LKNzd2MyCop1qyxci8-U-51">
          <mxGeometry x="-0.6226" relative="1" as="geometry">
            <mxPoint x="590" y="780" as="targetPoint" />
            <mxPoint as="offset" />
          </mxGeometry>
        </mxCell>
        <mxCell id="LKNzd2MyCop1qyxci8-U-116" value="yes" style="edgeStyle=orthogonalEdgeStyle;html=1;align=left;verticalAlign=top;endArrow=open;endSize=8;strokeColor=#ff0000;" edge="1" source="LKNzd2MyCop1qyxci8-U-114" parent="1" target="LKNzd2MyCop1qyxci8-U-120">
          <mxGeometry x="-0.6667" relative="1" as="geometry">
            <mxPoint x="570" y="780" as="targetPoint" />
            <mxPoint as="offset" />
          </mxGeometry>
        </mxCell>
        <mxCell id="LKNzd2MyCop1qyxci8-U-120" value="" style="ellipse;html=1;shape=endState;fillColor=#000000;strokeColor=#ff0000;" vertex="1" parent="1">
          <mxGeometry x="555" y="765" width="30" height="30" as="geometry" />
        </mxCell>
        <mxCell id="LKNzd2MyCop1qyxci8-U-121" value="Tie" style="text;align=center;fontStyle=1;verticalAlign=middle;spacingLeft=3;spacingRight=3;strokeColor=none;rotatable=0;points=[[0,0.5],[1,0.5]];portConstraint=eastwest;" vertex="1" parent="1">
          <mxGeometry x="585" y="767" width="25" height="26" as="geometry" />
        </mxCell>
      </root>
    </mxGraphModel>
  </diagram>
</mxfile>
